<svg xmlns="http://www.w3.org/2000/svg" xmlns:xlink="http://www.w3.org/1999/xlink" viewBox="0 0 1500 1500" width="1500" height="1500" preserveAspectRatio="xMidYMid meet" style="width: 100%; height: 100%; transform: translate3d(0px, 0px, 0px); content-visibility: visible;"><defs><clipPath id="__lottie_element_8"><rect width="1500" height="1500" x="0" y="0"></rect></clipPath><linearGradient id="__lottie_element_12" spreadMethod="pad" gradientUnits="userSpaceOnUse" x1="-247.10899353027344" y1="-374.218994140625" x2="455.6090087890625" y2="340.81201171875"><stop offset="0%" stop-color="rgb(243,163,37)"></stop><stop offset="50%" stop-color="rgb(248,124,95)"></stop><stop offset="100%" stop-color="rgb(253,86,152)"></stop></linearGradient></defs><g clip-path="url(#__lottie_element_8)"><g transform="matrix(1,0,0,1,750,750)" opacity="1" style="display: block;"><g opacity="1" transform="matrix(1,0,0,1,0,0)"><path fill="url(#__lottie_element_12)" fill-opacity="1" d=" M56.13187026977539,-500.3879699707031 C-51.022308349609375,-495.8289794921875 -156.65440368652344,-419.4965515136719 -264.1229553222656,-398.47760009765625 C-422.2204895019531,-374.2131652832031 -560.3927001953125,-254.79615783691406 -579.2881469726562,-81.74209594726562 C-597.9586181640625,93.60334777832031 -359.4654541015625,450.9704895019531 -165.8791961669922,519.4817504882812 C-45.46562957763672,563.1262817382812 61.43344497680664,548.5015869140625 165.07644653320312,532.99755859375 C298.1104431152344,513.0965576171875 437.552978515625,345.68829345703125 486.4289855957031,262.7272644042969 C562.4290161132812,133.72727966308594 576.8699951171875,-44.58415222167969 500.8771057128906,-193.9849090576172 C427.51654052734375,-337.7801513671875 324.5048522949219,-511.8634948730469 56.13187026977539,-500.3879699707031z"></path></g></g></g></svg>